<?xml version="1.0" encoding="utf-8"?>
<!-- Generator: Adobe Illustrator 27.0.0, SVG Export Plug-In . SVG Version: 6.00 Build 0)  -->
<svg version="1.1" id="Livello_1" xmlns="http://www.w3.org/2000/svg" xmlns:xlink="http://www.w3.org/1999/xlink" x="0px" y="0px"
	 viewBox="0 0 595.3 595.3" style="enable-background:new 0 0 595.3 595.3;" xml:space="preserve">
<style type="text/css">
	.st0{fill:#E9570D;}
	.st1{fill:none;stroke:#FFFFFF;stroke-width:22.2916;stroke-miterlimit:10;}
	.st2{fill:#FFFFFF;}
	.st3{fill:#8F3514;}
</style>
<g>
	<path class="st0" d="M117.6,422.9c0.5,1.1,1.2,2,2,2.8c0.8,0.8,1.8,1.5,2.8,1.9c1.1,0.5,2.2,0.7,3.4,0.7l11.2,0.2v16.8h-11.2
		c-4.5,0-8.5-0.6-11.9-1.9c-3.5-1.3-6.4-3-8.9-5.2c-2.4-2.2-4.3-4.8-5.6-7.8c-1.3-3-2-6.2-2.2-9.6l0.1-55.5h19.6v20.8H130v17h-13.1
		v16.4C116.9,420.7,117.1,421.8,117.6,422.9z"/>
	<path class="st0" d="M209.1,420.9c-0.2,3.4-0.9,6.6-2.2,9.6c-1.3,3-3.2,5.6-5.6,7.8c-2.4,2.2-5.4,3.9-8.8,5.2
		c-3.4,1.3-7.4,1.9-11.9,1.9h-7.1c-4.6,0-8.7-0.7-12.3-2c-3.5-1.4-6.5-3.2-9-5.6c-2.4-2.4-4.3-5.1-5.5-8.2c-1.2-3.1-1.9-6.5-1.9-10
		V403h0.1c0.2-3.4,0.9-6.6,2.2-9.5s3.2-5.5,5.6-7.7c2.4-2.2,5.3-3.9,8.8-5.2c3.5-1.3,7.4-1.9,11.9-1.9h7.1c4.6,0,8.7,0.7,12.2,2
		c3.5,1.4,6.5,3.2,8.9,5.5c2.4,2.3,4.3,5,5.5,8.2c1.2,3.1,1.9,6.5,1.9,10l0.1,16.6H209.1z M180.6,428.3c1.2,0,2.3-0.2,3.4-0.7
		s2-1.1,2.9-1.9c0.8-0.8,1.5-1.8,2-2.8c0.5-1.1,0.8-2.2,0.8-3.4v-15.2c0-1.2-0.3-2.3-0.8-3.3s-1.2-2-2-2.8c-0.8-0.8-1.8-1.5-2.9-1.9
		s-2.2-0.7-3.4-0.7h-7.1c-2.4,0-4.5,0.9-6.3,2.6c-1.8,1.7-2.7,3.8-2.7,6.1v15.2c0,1.2,0.3,2.3,0.8,3.4c0.5,1.1,1.2,2,2,2.8
		c0.8,0.8,1.8,1.5,2.9,1.9s2.2,0.7,3.4,0.7H180.6z"/>
	<path class="st0" d="M314,380.5l-18.7,63.7H276l-11.9-35l-11.8,35h-19.5L214,380.5h19.5l9.6,32.9l11.1-32.9h0.1h19.4l11.1,32.9
		l9.7-32.9H314z"/>
	<path class="st0" d="M422.5,444.1h-19.7v-89.2h19.7V444.1z"/>
	<path class="st0" d="M502.2,394v26.3c0,3.5-0.6,6.8-1.9,9.9c-1.2,3.1-3,5.8-5.4,8.1c-2.4,2.3-5.3,4.2-8.8,5.5
		c-3.5,1.4-7.6,2-12.1,2H467c-4.6,0-8.6-0.7-12.1-2c-3.5-1.4-6.5-3.2-8.8-5.5c-2.4-2.3-4.2-5-5.4-8.1c-1.2-3.1-1.9-6.4-1.9-9.9h19.6
		c0,1.2,0.2,2.3,0.7,3.3c0.5,1,1.1,2,1.9,2.8s1.7,1.4,2.8,1.9c1,0.5,2.1,0.7,3.3,0.7h7c1.2,0,2.2-0.2,3.3-0.7c1-0.5,2-1.1,2.8-1.9
		s1.4-1.7,1.9-2.8c0.5-1,0.7-2.1,0.7-3.3v-3.1c-2.9,0.6-5.8,0.9-8.7,0.9H467c-4.6,0-8.6-0.7-12.1-2c-3.5-1.3-6.5-3.1-8.8-5.4
		c-2.4-2.3-4.2-5-5.4-8.1c-1.2-3.1-1.9-6.4-1.9-10v-14.8h19.5l0.1,14.8c0,2.3,0.9,4.3,2.6,6.1c1.7,1.7,3.7,2.6,6.1,2.6h7
		c1.2,0,2.2-0.2,3.3-0.7c1-0.5,2-1.1,2.8-1.9c0.8-0.8,1.4-1.7,1.9-2.8c0.5-1,0.7-2.1,0.7-3.3v-9.4v-5.5h19.5V394z"/>
	<rect x="322.4" y="403" class="st0" width="0.1" height="6.6"/>
	<path class="st0" d="M342,383.1c1.5-1.4,3.2-2.5,5.1-3.3c1.4-0.6,3.1-0.9,4.8-1.1v-0.2H351c-3.3,0-6.3,0.4-9.1,1h0L342,383.1z"/>
	<path class="st0" d="M386.6,444.1l-0.1-39.8c0-3.6-0.6-6.9-1.9-10c-1.2-3.1-3-5.9-5.4-8.2c-2.4-2.3-5.4-4.2-8.9-5.5
		c-3.6-1.4-7.6-2-12.2-2h-4.3c-0.7,0-1.3,0.1-1.9,0.2c-1.8,0.2-3.4,0.5-4.8,1.1c-1.9,0.8-3.6,1.9-5.1,3.3l-0.1-3.5h0
		c-1,0.2-1.9,0.5-2.9,0.9c-3.5,1.3-6.4,3-8.8,5.2c-2.4,2.2-4.2,4.8-5.6,7.7c-1.3,2.9-2,6.1-2.2,9.5h-0.1v6.6v34.6H342v-34.6h0.1V407
		h0.1c0-3.9,1-6.8,3.1-8.6c2.1-1.8,4.9-2.7,8.7-2.7h4.3c2.3,0,4.4,0.9,6.2,2.6c1.8,1.7,2.7,3.8,2.7,6.1v39.8H386.6z"/>
</g>
<path class="st0" d="M299.7,344.2c-64.2,0-116.4-52.2-116.4-116.4s52.2-116.4,116.4-116.4c64.2,0,116.4,52.2,116.4,116.4
	S363.9,344.2,299.7,344.2z M299.7,133.7c-51.9,0-94.1,42.2-94.1,94.1s42.2,94.1,94.1,94.1s94.1-42.2,94.1-94.1
	S351.6,133.7,299.7,133.7z"/>
<path class="st0" d="M324.5,218.5h-43.6c-6.6,0-12-5.4-12-12v-10.4h67.6v10.4C336.5,213.1,331.1,218.5,324.5,218.5z"/>
<rect x="298.6" y="168.2" class="st0" width="10.1" height="30.5"/>
<rect x="319.2" y="168.2" class="st0" width="10.1" height="30.5"/>
<path class="st0" d="M300.4,146.9l-37.3,26.5c-3.1,2.2-1.6,7.1,2.3,7.1H340c3.8,0,5.4-4.9,2.3-7.1l-37.3-26.5
	C303.6,145.9,301.7,145.9,300.4,146.9z"/>
<polygon class="st0" points="264.4,314.8 260.4,348.1 344.3,348.1 338.3,297.4 "/>
<polygon class="st0" points="262.5,329.7 258.3,363 346.7,363 340.4,312.3 "/>
<polygon class="st0" points="332,247.5 271,261.8 267.4,292.4 335.4,276.4 "/>
<polygon class="st0" points="329.2,229.7 325.9,202.2 278.8,202.2 274,242.7 "/>
<rect x="277.3" y="167.5" class="st0" width="10.1" height="30.5"/>
<path class="st0" d="M300.4,146.9l-37.3,26.5c-3.1,2.2-1.6,7.1,2.3,7.1H340c3.8,0,5.4-4.9,2.3-7.1l-37.3-26.5
	C303.6,145.9,301.7,145.9,300.4,146.9z"/>
</svg>
